# xmcd
# 
# Track frame offsets:
#     150
#     13401
#     33865
#     51905
#     77118
#     89487
#     108254
#     126099
#     143012
#     161584
#     180922
#     193700
#     220168
#     239370
#     259546
#     284150
#     298183
# 
# Disc length: 4191
# 
# Revision: 12
# Processed by: cddbd v1.5.2PL0 Copyright (c) Steve Scherf et al.
# Submitted via: fre:ac v1.0.17
# 
DISCID=f8105d11
DTITLE=Various Artist - The Best Smooth Jazz ...Ever! vol.1 CD3
DYEAR=2004
DGENRE=Jazz
TTITLE0=Lou Rawls - For What It 's Worth (Stop, Hey What's That Sound)
TTITLE1=Maze - Joy And Pain
TTITLE2=Timmy Thomas - Why Can't We Live Together
TTITLE3=The Isley Brothers - That Lady
TTITLE4=Bobbi Humphrey - You Are The Sunshine Of My Life
TTITLE5=Marlena Shaw - Save The Children
TTITLE6=Mica Paris - Stay
TTITLE7=Shara Nelson - Down That Road
TTITLE8=Arrested Development - Everyday People
TTITLE9=Doris - Never Come Closer
TTITLE10=Natalie Cole - This Will Be
TTITLE11=Ronnie Laws - Every Generation
TTITLE12=Ronnie Jordan with Roy Ayers - Mystic Voyage
TTITLE13=Bobby Hutcherson - Theme from M.A.S.H.
TTITLE14=Herbie Hancock - Canteloupe Island
TTITLE15=Cannonball Adderley - Mercy Mercy Mercy
TTITLE16=Sarah Vaughan - Round Midnight
EXTD=YEAR: 2004
EXTT0=
EXTT1=
EXTT2=
EXTT3=
EXTT4=
EXTT5=
EXTT6=
EXTT7=
EXTT8=
EXTT9=
EXTT10=
EXTT11=
EXTT12=
EXTT13=
EXTT14=
EXTT15=
EXTT16=
PLAYORDER=
